<svg width="296" height="106" viewBox="0 0 296 106" fill="none" xmlns="http://www.w3.org/2000/svg">
<g clip-path="url(#clip0_36_2091)">
<path d="M123.34 51.2882C125.965 53.3211 126.094 56.3304 124.777 59.535C124.688 59.7453 124.593 59.9556 124.494 60.1659C124.33 60.5164 124.156 60.8719 123.957 61.2224C122.57 63.7309 120.422 66.2746 117.986 68.4978C117.658 68.7731 117.355 69.0435 117.062 69.3189C116.873 69.4792 116.684 69.6394 116.49 69.7946C115.908 70.2703 115.426 70.751 115.009 71.2317C112.18 74.5063 112.841 77.806 113.751 79.8289C114.298 81.0457 114.929 81.7967 114.929 81.7967H114.939C115.088 81.982 115.257 82.1572 115.416 82.3325C115.267 82.0521 115.217 81.6265 115.635 81.0857C115.819 80.9005 116.038 80.6801 116.286 80.4298C116.306 80.4098 116.326 80.3897 116.346 80.3647C117.589 79.1229 119.592 77.1401 122.147 74.6916C126.572 70.4455 129.122 66.3647 129.286 60.3912C129.445 54.4177 123.325 51.2832 123.325 51.2832L123.34 51.2882Z" fill="white"/>
<path d="M123.34 51.2882C125.965 53.3211 126.094 56.3304 124.777 59.535C124.688 59.7453 124.593 59.9556 124.494 60.1659C124.33 60.5164 124.156 60.8719 123.957 61.2224C122.57 63.7309 120.422 66.2746 117.986 68.4978C117.658 68.7731 117.355 69.0435 117.062 69.3189C116.873 69.4792 116.684 69.6394 116.49 69.7946C115.908 70.2703 115.426 70.751 115.009 71.2317C112.18 74.5063 112.841 77.806 113.751 79.8289C114.298 81.0457 114.929 81.7967 114.929 81.7967H114.939C115.088 81.982 115.257 82.1572 115.416 82.3325C115.267 82.0521 115.217 81.6265 115.635 81.0857C115.819 80.9005 116.038 80.6801 116.286 80.4298C116.306 80.4098 116.326 80.3897 116.346 80.3647C117.589 79.1229 119.592 77.1401 122.147 74.6916C126.572 70.4455 129.122 66.3647 129.286 60.3912C129.445 54.4177 123.325 51.2832 123.325 51.2832L123.34 51.2882Z" fill="white"/>
<path d="M121.491 51.3883C114.149 46.4964 93.0359 47.2524 54.6881 58.5586C92.2654 51.2882 113.572 52.8504 121.233 58.8941C121.933 59.6051 122.311 60.271 122.112 61.2825C122.306 60.932 122.485 60.5815 122.644 60.231C122.744 60.0207 122.838 59.8154 122.928 59.6051C124.24 56.4105 124.111 53.4112 121.496 51.3883H121.491Z" fill="white"/>
<path d="M163.204 94.0092C163.095 92.0413 161.196 92.2066 161.196 92.2066C147.953 92.3918 125.806 90.0435 115.869 84.1651C115.118 83.6494 114.323 83.0585 113.612 82.3125C113.448 82.1372 113.284 81.962 113.134 81.7717H113.125C113.125 81.7717 112.493 81.0256 111.951 79.8139C111.047 77.801 110.38 74.5113 113.204 71.2517C113.239 71.2016 113.269 71.1515 113.299 71.1015C113.299 71.1015 106.334 76.9598 106.334 84.0049C106.334 91.0499 108.77 94.8804 115.809 97.8496C125.523 102.521 140.993 104.459 156.255 105.075C156.255 105.075 158.183 104.93 159.098 103.983C160.724 102.296 161.226 100.819 162.484 97.7395C163.204 95.987 163.244 94.7953 163.199 93.9991L163.204 94.0092Z" fill="white"/>
<path d="M51.7005 81.3861V63.2803H55.5233V66.3797H55.583C56.5921 64.2166 57.999 63.0049 60.4796 62.9348V67.4963C60.2808 67.4613 60.0421 67.4613 59.7439 67.4613C57.6659 67.4613 55.8564 69.9298 55.8564 70.3854V81.3861H51.6955H51.7005Z" fill="white"/>
<path d="M46.0035 64.5321C44.9297 63.5607 43.1848 62.9298 41.7133 62.9298C37.1846 62.9298 34.8431 66.0643 34.8431 69.2288C34.8431 71.4269 35.9815 72.8189 37.4232 74.0407C36.6477 74.281 34.7039 75.6029 34.7039 77.3404C34.7039 79.2932 36.4836 79.7438 37.2889 80.2695V80.3396C35.7777 80.3396 34.1372 81.4162 34.1372 83.6794C34.1372 86.5335 37.2243 87.9956 41.9122 87.9956C47.4799 87.9956 49.9904 85.2116 49.9904 82.6379C49.9904 75.3926 38.5268 79.3633 38.5268 76.4341C38.5268 75.3926 39.9734 75.3275 41.7779 75.3275C46.1427 75.3275 48.3499 72.889 48.3499 69.4741C48.3499 68.0822 47.9472 67.0357 47.4103 66.2796C48.0466 65.859 49.1204 65.859 50.0898 65.859V62.9348C48.1162 62.8647 46.8088 63.4205 46.0035 64.5371V64.5321ZM40.908 81.0356C44.9297 81.0356 46.1675 82.2924 46.1675 83.1286C46.1675 83.7545 45.2627 85.1465 42.5783 85.1465C39.0935 85.1465 37.9501 84.5156 37.9501 83.1286C37.9501 82.3625 38.6212 81.0356 40.903 81.0356H40.908ZM41.6735 72.1229C39.8988 72.1229 38.656 70.801 38.656 69.1287C38.656 67.4563 39.8988 66.1344 41.6735 66.1344C43.2494 66.1344 44.527 67.4563 44.527 69.1287C44.527 70.801 43.2494 72.1229 41.6735 72.1229Z" fill="white"/>
<path d="M68.697 62.9298C63.9693 62.9298 61.1208 66.585 61.1208 72.3282C61.1208 78.0714 63.9693 81.7316 68.4981 81.7316C71.8487 81.7316 74.1951 80.615 75.8058 78.0414L72.7883 76.0936C71.7542 77.3404 70.8395 78.2567 68.9008 78.2567C66.962 78.2567 65.3464 76.7896 65.2817 73.0342H75.8107V71.2517C75.8107 66.9005 73.2605 62.8998 68.7019 62.9348L68.697 62.9298ZM65.2768 70.1C65.3464 67.5915 66.619 66.1344 68.6274 66.1344C70.6357 66.1344 71.9084 67.5915 71.9829 70.1H65.2768Z" fill="white"/>
<path d="M91.1618 78.7724V70.2402C91.1618 64.8075 89.1485 63.035 84.4557 62.9298C81.9055 62.8597 79.0271 64.3218 77.9533 66.2345L80.6378 68.3626C81.4431 67.2109 82.5169 66.1344 84.4606 66.1344C85.9371 66.1344 87.0059 66.9005 87.0059 68.2925V69.8246C80.2351 70.6608 77.0138 72.8189 77.0138 76.9248C77.0138 79.3983 78.5897 81.7316 81.7414 81.7316C83.9188 81.7316 85.4947 81.0006 87.1749 79.8189L87.4384 81.3861H91.4999C91.2364 80.585 91.1668 79.6787 91.1668 78.7724H91.1618ZM87.0009 76.6093C86.131 77.3754 84.4905 78.5321 83.1781 78.5321C82.0049 78.5321 81.1647 77.766 81.1647 76.409C81.1647 73.8704 84.2171 73.2746 86.996 72.7188V76.6143L87.0009 76.6093Z" fill="white"/>
<path d="M95.3177 63.2803V57.2868H99.4736V63.2803H102.894V66.7553H99.4736V76.9899C99.4736 77.9713 99.9409 78.2467 100.98 78.2467C101.621 78.2467 102.292 78.0314 102.894 77.8962V81.4512C101.755 81.5864 100.746 81.7266 99.6078 81.7266C96.5257 81.7266 95.3127 80.1193 95.3127 77.5457V66.7553H92.8967V63.2803H95.3127H95.3177Z" fill="white"/>
<path d="M17.0959 18.902C17.1109 18.9821 17.1208 19.0622 17.1307 19.1423C17.4588 17.7954 17.5284 16.3584 17.2849 14.9013C16.3354 9.13305 10.9217 5.23749 5.1949 6.19386C3.19151 6.53434 1.42176 7.4156 0 8.67239C0.681054 8.43706 1.39194 8.24679 2.12767 8.12661C9.2166 6.93992 15.9178 11.7668 17.091 18.907L17.0959 18.902Z" fill="white"/>
<path d="M15.4853 25.6717C15.4256 25.7468 15.361 25.8169 15.2964 25.892C16.7579 25.1259 18.0902 24.0543 19.1988 22.6874C23.5883 17.2797 22.793 9.31331 17.4241 4.89701C15.5499 3.3498 13.3626 2.44851 11.1255 2.15309C11.8712 2.58371 12.602 3.07941 13.293 3.64522C19.9395 9.11803 20.9188 18.9821 15.4853 25.6717Z" fill="white"/>
<path d="M14.7297 29.9978C23.8618 28.4206 30.0261 19.7081 28.5049 10.49C27.794 6.17883 25.5271 2.51861 22.3754 1.52588e-05C23.2752 1.9528 23.9314 4.06081 24.2992 6.28899C25.8552 15.6874 21.8584 24.7153 14.7297 30.0028V29.9978Z" fill="white"/>
<path d="M33.9284 12.5079C33.6848 11.0157 33.2822 9.5887 32.7403 8.24178C32.8994 20.3691 24.2346 31.1094 11.9905 33.1173C9.65408 33.4978 7.34247 33.5379 5.10046 33.2725C8.79406 35.2653 13.1389 36.0915 17.5881 35.3655C28.3657 33.598 35.6783 23.3634 33.9235 12.5079H33.9284Z" fill="white"/>
<path d="M83.7995 21.0249H81.284L81.294 30.6136C81.3338 31.6201 81.2095 33.0471 81.6668 33.3976C81.9104 33.6329 82.8947 34.0185 84.2966 34.0185C89.4418 34.0185 90.4311 31.3497 90.4311 27.6394C90.4311 24.3547 89.0739 21.1051 83.7995 21.0299M83.0985 9.50851H81.294L81.284 19.9434H83.889C86.8071 19.9434 88.6166 18.8018 88.6166 14.4956C88.6166 10.1895 86.3099 9.58361 83.0985 9.50851ZM85.5642 35.1701C85.1168 35.1801 77.2922 35.1751 77.2922 35.1751V12.3275C77.2922 10.5901 77.1729 9.92911 76.5515 9.54356C76.1786 9.27317 74.4487 9.27317 73.7527 9.27317L74.0808 8.26173H83.0588C88.4078 8.11652 92.2008 9.15801 92.862 13.6795C93.2746 16.5035 91.5048 19.2825 87.7963 20.2138C93.8512 21.0249 94.8405 25.241 94.8405 27.1337C94.8405 31.4899 92.4096 35.07 85.5642 35.1701Z" fill="white"/>
<path d="M105.543 17.505C103.938 17.505 101.716 18.897 101.258 23.9242H107.81C108.879 23.9242 108.839 23.8891 108.839 22.6874C108.839 20.0987 107.974 17.505 105.543 17.505ZM112.424 25.3111H101.139C100.771 30.2582 103.282 34.1638 106.945 34.1638C110.117 34.1638 111.927 32.3462 111.927 32.3462L112.175 33.4678C112.175 33.4678 110.197 35.8261 105.419 35.6309C101.174 35.4756 96.8936 32.0708 97.2217 25.7367C97.4255 21.7961 100.02 16.2232 105.623 16.2232C111.226 16.2232 112.543 20.3591 112.543 23.7639C112.543 24.6902 112.419 25.3111 112.419 25.3111" fill="white"/>
<path d="M122.649 35.055L116.43 35.065V11.6466C116.43 10.2897 116.077 9.70386 115.396 9.40343C114.914 9.18813 113.751 9.05794 113.13 9.05794L113.463 8.24178H119.885V31.1144C119.885 32.7768 120.298 33.4728 120.959 33.8984C121.372 34.0937 122.277 34.2489 122.938 34.2489L122.649 35.055Z" fill="white"/>
<path d="M132.318 35.055L126.099 35.065V11.6466C126.099 10.2897 125.746 9.70386 125.07 9.40343C124.583 9.18813 123.425 9.05794 122.808 9.05794L123.137 8.24178H129.559V31.1144C129.559 32.7768 129.972 33.4728 130.628 33.8984C131.046 34.0937 131.946 34.2489 132.607 34.2489L132.318 35.055Z" fill="white"/>
<path d="M41.8127 23.4682C41.8127 23.4682 45.6853 13.6442 46.5503 11.401C47.455 13.8345 50.5024 23.4682 50.5024 23.4682H41.8127ZM57.2582 31.5398C57.2582 31.5398 55.568 27.0534 53.9226 22.2215C52.0285 16.6936 49.2944 8.26656 49.2944 8.26656H45.9736L36.9907 32.6363C36.4985 33.7529 35.7081 34.0433 34.4206 34.0433L34.1472 34.9346H40.5799L40.8682 34.0433C40.8682 34.0433 39.2178 33.9933 38.8996 33.7329C38.5168 33.3874 38.5964 32.6814 39.1333 31.1843L41.2957 25.1056H51.0741L54.191 34.9346H60.3851L60.6735 34.0433C59.1473 34.0433 58.0338 33.6578 57.2533 31.5297" fill="white"/>
<path d="M69.3432 32.8917C69.3432 38.8102 66.8278 42.0548 61.6776 42.1299C61.3495 42.1299 61.0413 42.1149 60.8375 42.1149L60.4746 41.0284C61.4887 41.1936 62.4581 41.0484 63.3678 40.5427C64.1483 40.117 65.0382 39.1507 65.1575 36.8724C65.2818 34.7093 65.2022 32.2759 65.2022 29.6822V12.3274C65.2022 10.5849 65.0829 9.92898 64.4615 9.54843C64.0887 9.27805 62.3637 9.27805 61.6627 9.27805L61.9908 8.2616H69.3532L69.3383 32.8967L69.3432 32.8917Z" fill="white"/>
<path d="M121.322 51.2882C113.95 46.3812 92.7576 47.1323 54.2606 58.4885C91.9821 51.1931 113.373 52.7553 121.064 58.824C121.765 59.535 122.147 60.2059 121.948 61.2224C122.142 60.8669 122.321 60.5164 122.485 60.1659C122.585 59.9556 122.679 59.7453 122.769 59.535C124.086 56.3254 123.957 53.3211 121.332 51.2882H121.322Z" fill="white"/>
<path d="M163.194 94.0742C163.085 92.0964 161.176 92.2667 161.176 92.2667C147.883 92.4519 125.647 90.0986 115.675 84.1901C114.919 83.6744 114.124 83.0786 113.413 82.3325C113.249 82.1572 113.085 81.982 112.936 81.7917H112.926C112.926 81.7917 112.294 81.0406 111.748 79.8289C110.838 77.806 110.172 74.5063 113.005 71.2317C113.04 71.1816 113.07 71.1315 113.1 71.0814C113.1 71.0814 106.105 76.9648 106.105 84.0349C106.105 91.105 108.551 94.9555 115.62 97.9348C125.369 102.626 140.904 104.569 156.225 105.185C156.225 105.185 158.164 105.04 159.078 104.089C160.709 102.396 161.216 100.909 162.479 97.8196C163.199 96.0571 163.239 94.8654 163.194 94.0692V94.0742Z" fill="white"/>
<path d="M132.482 81.3811V63.1802H136.41V65.138C137.22 64.3919 138.02 63.8211 138.806 63.4205C139.591 63.0249 140.6 62.8247 141.828 62.8247C142.778 62.8247 143.658 63.045 144.468 63.4906C145.278 63.9362 145.88 64.5972 146.273 65.4834C146.645 65.1079 147.038 64.7624 147.456 64.4319C147.873 64.1065 148.331 63.8261 148.828 63.5907C149.325 63.3554 149.877 63.1701 150.478 63.0299C151.08 62.8897 151.751 62.8196 152.491 62.8196C152.954 62.8196 153.446 62.8998 153.968 63.065C154.49 63.2302 154.967 63.5156 155.41 63.9212C155.847 64.3318 156.215 64.8876 156.503 65.5986C156.792 66.3096 156.936 67.2009 156.936 68.2774V81.3661H152.626V68.663C152.626 67.9169 152.462 67.3511 152.139 66.9656C151.815 66.58 151.259 66.3647 150.468 66.3196C149.911 66.3196 149.3 66.5299 148.629 66.9505C147.958 67.3711 147.366 67.8118 146.854 68.2824V81.3711H142.544V68.668C142.544 67.9219 142.38 67.3561 142.057 66.9706C141.734 66.585 141.177 66.3697 140.392 66.3247C139.835 66.3247 139.223 66.535 138.552 66.9556C137.881 67.3762 137.29 67.8168 136.782 68.2875V81.3761H132.472L132.482 81.3811Z" fill="white"/>
<path d="M169.592 81.3811L169.314 79.8089C168.434 80.4148 167.559 80.8904 166.689 81.2259C165.819 81.5664 164.82 81.7316 163.682 81.7316C162.871 81.7316 162.16 81.5964 161.544 81.3311C160.928 81.0607 160.421 80.7002 160.013 80.2445C159.605 79.7889 159.302 79.2781 159.093 78.7023C158.884 78.1315 158.78 77.5306 158.78 76.8997C158.78 74.8218 159.625 73.2195 161.315 72.0879C163.006 70.9563 165.61 70.1802 169.135 69.7596V68.2174C169.135 67.5164 168.886 66.9806 168.389 66.6051C167.892 66.2345 167.261 66.0442 166.495 66.0442C165.476 66.0442 164.666 66.2696 164.064 66.7252C163.463 67.1809 162.951 67.7016 162.533 68.2824L159.754 66.1494C160.033 65.6587 160.416 65.2131 160.903 64.8025C161.39 64.3969 161.937 64.0364 162.553 63.736C163.165 63.4355 163.811 63.2002 164.482 63.035C165.153 62.8697 165.824 62.7996 166.495 62.8247C167.698 62.8497 168.742 62.9899 169.622 63.2453C170.502 63.5006 171.228 63.9162 171.795 64.487C172.361 65.0578 172.779 65.8089 173.047 66.7453C173.316 67.6766 173.445 68.8232 173.445 70.1751V78.7474C173.445 79.213 173.47 79.6687 173.515 80.1143C173.559 80.56 173.654 80.9756 173.793 81.3761H169.587L169.592 81.3811ZM169.14 72.6687C168.419 72.8089 167.703 72.9591 166.987 73.1244C166.267 73.2896 165.62 73.5049 165.044 73.7703C164.462 74.0407 163.995 74.3811 163.637 74.8017C163.279 75.2223 163.1 75.7481 163.1 76.374C163.1 77.05 163.299 77.5757 163.692 77.9512C164.084 78.3268 164.581 78.512 165.188 78.512C165.536 78.512 165.894 78.4469 166.267 78.3168C166.639 78.1916 166.997 78.0314 167.345 77.8461C167.693 77.6608 168.021 77.4505 168.335 77.2152C168.648 76.9799 168.921 76.7696 169.15 76.5843V72.6637L169.14 72.6687Z" fill="white"/>
<path d="M176.716 81.3811V63.1802H180.678V65.138C181.488 64.5772 182.353 64.0514 183.268 63.5607C184.183 63.07 185.172 62.8247 186.241 62.8247C188.045 62.8247 189.393 63.3754 190.273 64.472C191.152 65.5686 191.595 67.0507 191.595 68.9184V81.3761H187.285V69.5442C187.285 68.3075 187.101 67.4613 186.728 67.0056C186.355 66.55 185.803 66.3247 185.063 66.3247C184.113 66.3247 183.298 66.54 182.612 66.9706C181.926 67.4012 181.399 67.8268 181.031 68.2474V81.3711H176.721L176.716 81.3811Z" fill="white"/>
<path d="M204.997 69.0936C204.649 68.3225 204.232 67.6716 203.745 67.1358C203.257 66.6 202.492 66.3297 201.453 66.3297C200.25 66.3297 199.355 66.8103 198.778 67.7667C198.197 68.7231 197.908 70.2302 197.908 72.2832C197.908 74.3361 198.202 75.8432 198.793 76.7996C199.385 77.756 200.314 78.2366 201.592 78.2366C202.541 78.2366 203.307 77.9563 203.884 77.3954C204.46 76.8346 204.972 76.1487 205.415 75.3325L208.681 77.1851C207.801 78.8175 206.792 79.9891 205.658 80.7052C204.525 81.4162 203.123 81.7617 201.453 81.7366C200.225 81.7366 199.126 81.5163 198.152 81.0707C197.178 80.6301 196.357 79.9992 195.686 79.183C195.015 78.3668 194.498 77.3754 194.14 76.2088C193.782 75.0421 193.603 73.7352 193.603 72.2882C193.603 70.8411 193.782 69.5342 194.14 68.3676C194.498 67.2009 195.015 66.2095 195.686 65.3933C196.357 64.5772 197.183 63.9463 198.152 63.5056C199.126 63.06 200.225 62.8397 201.453 62.8397C203.168 62.8397 204.654 63.2653 205.917 64.1165C207.18 64.9677 208.064 66.1644 208.577 67.7066L204.997 69.1036V69.0936Z" fill="white"/>
<path d="M211.321 81.3811V56.1101H215.631V65.138C216.302 64.5772 217.072 64.0514 217.942 63.5607C218.812 63.07 219.777 62.8247 220.845 62.8247C222.65 62.8247 223.997 63.3754 224.877 64.472C225.757 65.5686 226.199 67.0507 226.199 68.9184V81.3761H221.889V69.5442C221.889 68.3075 221.705 67.4613 221.333 67.0056C220.96 66.55 220.408 66.3247 219.667 66.3247C218.718 66.3247 217.902 66.54 217.216 66.9706C216.53 67.4012 216.003 67.8268 215.636 68.2474V81.3711H211.326L211.321 81.3811Z" fill="white"/>
<path d="M232.518 72.9791C232.563 74.8668 232.945 76.2188 233.666 77.0199C234.382 77.8261 235.252 78.2266 236.271 78.2266C237.29 78.2266 238.056 78.0213 238.632 77.6158C239.209 77.2102 239.766 76.6894 240.298 76.0585L243.425 78.0163C242.589 79.3232 241.555 80.2696 240.313 80.8504C239.075 81.4312 237.583 81.7266 235.849 81.7266C234.665 81.7266 233.607 81.5063 232.667 81.0607C231.727 80.6201 230.932 79.9891 230.271 79.173C229.61 78.3568 229.103 77.3654 228.74 76.1987C228.382 75.0321 228.203 73.7252 228.203 72.2782C228.203 70.8311 228.382 69.5242 228.74 68.3576C229.098 67.1909 229.615 66.1995 230.286 65.3833C230.957 64.5671 231.782 63.9362 232.751 63.4956C233.726 63.05 234.824 62.8297 236.052 62.8297C237.28 62.8297 238.284 63.055 239.199 63.5106C240.114 63.9663 240.884 64.5772 241.511 65.3483C242.137 66.1194 242.609 67.0106 242.937 68.0271C243.261 69.0435 243.425 70.1 243.425 71.1966V72.9842H232.513L232.518 72.9791ZM239.468 70.04C239.423 68.7782 239.09 67.8018 238.478 67.1008C237.862 66.3998 237.037 66.0493 235.993 66.0493C234.949 66.0493 234.124 66.3998 233.507 67.1008C232.891 67.8018 232.563 68.7832 232.518 70.04H239.468Z" fill="white"/>
<path d="M254.724 67.977C254.282 67.5113 253.78 67.0707 253.213 66.6651C252.646 66.2596 252.025 66.0543 251.354 66.0543C250.519 66.0543 249.907 66.2195 249.514 66.545C249.122 66.8704 248.923 67.301 248.923 67.8418C248.923 68.3826 249.146 68.7681 249.599 69.0836C250.051 69.399 250.608 69.6844 251.264 69.9398C251.925 70.1952 252.646 70.4606 253.437 70.7259C254.222 70.9963 254.948 71.3568 255.609 71.8125C256.27 72.2681 256.827 72.849 257.274 73.56C257.727 74.271 257.95 75.1773 257.95 76.2739C257.95 77.2302 257.781 78.0464 257.448 78.7223C257.11 79.3983 256.648 79.9641 256.056 80.4198C255.465 80.8754 254.764 81.2059 253.954 81.4162C253.143 81.6265 252.263 81.7316 251.314 81.7316C249.852 81.7316 248.55 81.4162 247.407 80.7853C246.263 80.1544 245.279 79.2431 244.469 78.0564L247.352 75.8883C247.859 76.5893 248.46 77.2002 249.142 77.7259C249.823 78.2517 250.628 78.512 251.558 78.512C252.323 78.512 252.939 78.3168 253.417 77.9362C253.889 77.5507 254.128 77.055 254.128 76.4491C254.128 75.9384 253.904 75.5178 253.452 75.1873C252.999 74.8618 252.442 74.5714 251.786 74.3111C251.125 74.0557 250.399 73.7803 249.614 73.4899C248.823 73.1995 248.103 72.8289 247.441 72.3883C246.78 71.9477 246.223 71.3869 245.771 70.7109C245.319 70.0349 245.095 69.1687 245.095 68.1222C245.095 67.281 245.259 66.5299 245.582 65.864C245.905 65.198 246.348 64.6473 246.904 64.2016C247.461 63.756 248.098 63.4205 248.813 63.1852C249.529 62.9548 250.285 62.8347 251.07 62.8347C252.273 62.8347 253.437 63.06 254.565 63.5156C255.689 63.9713 256.643 64.6673 257.433 65.5986L254.724 67.977Z" fill="white"/>
<path d="M261.013 63.1802V57.1616H265.323V63.1802H268.867V66.6802H265.323V76.9698C265.323 77.4605 265.452 77.791 265.706 77.9663C265.959 78.1415 266.352 78.2266 266.889 78.2266C267.212 78.2266 267.545 78.1866 267.878 78.1065C268.216 78.0263 268.544 77.9512 268.867 77.8811V81.4512C268.266 81.5213 267.699 81.5864 267.167 81.6415C266.635 81.7016 266.068 81.7266 265.462 81.7266C263.861 81.7266 262.723 81.3511 262.042 80.605C261.361 79.859 261.018 78.8325 261.018 77.5256V66.6752H258.517V63.1752H261.018L261.013 63.1802Z" fill="white"/>
<path d="M273.764 72.9791C273.809 74.8668 274.191 76.2188 274.912 77.0199C275.628 77.8261 276.498 78.2266 277.517 78.2266C278.536 78.2266 279.302 78.0213 279.878 77.6158C280.455 77.2102 281.012 76.6894 281.544 76.0585L284.671 78.0163C283.835 79.3232 282.801 80.2696 281.559 80.8504C280.321 81.4312 278.83 81.7266 277.095 81.7266C275.911 81.7266 274.853 81.5063 273.913 81.0607C272.973 80.6201 272.178 79.9891 271.517 79.173C270.856 78.3568 270.349 77.3654 269.986 76.1987C269.628 75.0321 269.449 73.7252 269.449 72.2782C269.449 70.8311 269.628 69.5242 269.986 68.3576C270.344 67.1909 270.861 66.1995 271.532 65.3833C272.203 64.5671 273.028 63.9362 273.997 63.4956C274.972 63.05 276.07 62.8297 277.298 62.8297C278.526 62.8297 279.53 63.055 280.445 63.5106C281.36 63.9663 282.13 64.5772 282.757 65.3483C283.383 66.1194 283.855 67.0106 284.183 68.0271C284.507 69.0435 284.671 70.1 284.671 71.1966V72.9842H273.759L273.764 72.9791ZM280.714 70.04C280.669 68.7782 280.336 67.8018 279.724 67.1008C279.108 66.3998 278.283 66.0493 277.239 66.0493C276.195 66.0493 275.37 66.3998 274.753 67.1008C274.137 67.8018 273.809 68.7832 273.764 70.04H280.714Z" fill="white"/>
<path d="M286.898 81.3811V63.1802H290.86V66.2946H290.929C291.461 65.198 292.117 64.3568 292.893 63.776C293.669 63.1952 294.703 62.8797 296.005 62.8297V67.4162C295.891 67.3912 295.771 67.3812 295.657 67.3812H295.239C294.708 67.3812 294.195 67.5163 293.708 67.7817C293.221 68.0521 292.794 68.3525 292.421 68.693C292.048 69.0335 291.755 69.359 291.536 69.6744C291.317 69.9899 291.208 70.2052 291.208 70.3204V81.3811H286.898Z" fill="white"/>
<path d="M180.43 91.8258C181.2 92.5218 181.21 93.5583 179.788 93.7936C172.799 94.9803 172.496 97.3837 169.637 102.671C168.961 103.913 168.24 104.975 167.102 104.975C166.272 104.975 165.71 104.259 165.675 103.057C165.645 102.02 166.664 100.503 167.112 99.6019C167.882 98.0747 168.792 95.8716 169.294 92.3415C169.727 89.3322 172.501 90.7793 173.465 92.4317C175.359 91.1548 178.451 90.0232 180.43 91.8208" fill="white"/>
<path d="M208.035 104.85C205.827 105.27 205.186 101.48 205.042 100.028C204.898 98.6608 204.962 97.404 204.982 96.678C205.027 95.0657 202.696 93.7888 200.135 96.6079C198.793 98.07 198.077 99.9526 197.371 101.775C196.994 102.737 196.308 104.97 194.97 104.97C194.14 104.97 193.573 104.254 193.544 103.052C193.494 101.254 195.597 95.8718 197.197 92.2416C198.47 89.3575 200.22 91.1801 200.563 91.9612C201.194 93.4383 204.749 91.1501 205.882 91.0499C207.756 90.8797 208.547 92.4519 208.224 95.6765C208.03 97.6293 208.472 100.899 208.915 102.837C209.188 103.993 208.785 104.699 208.03 104.845" fill="white"/>
<path d="M190.173 104.594C189.482 104.284 188.761 103.853 188.259 103.578C186.768 102.742 185.933 103.858 184.68 104.454C182.219 105.601 178.62 104.965 178.516 101.51C178.451 99.0113 182.403 91.6107 183.512 90.8246C184.392 90.1887 186.539 90.7946 186.067 92.0714C185.451 93.7588 182.532 98.6758 182.861 100.183C183.064 101.154 185.55 101.6 186.663 100.043C187.936 98.2602 188.796 96.2123 189.756 94.2545C190.233 93.2681 191.297 90.8547 192.654 90.8547C193.509 90.8547 194.056 91.826 193.941 92.492C193.633 94.2946 192.201 96.1071 191.853 98.0549C191.54 99.7824 190.73 100.729 191.923 102.416C192.385 103.062 193.404 104.364 192.172 104.94C191.585 105.21 190.715 104.84 190.178 104.599" fill="white"/>
<path d="M211.763 90.0785H212.007C212.285 90.0785 212.519 89.9734 212.519 89.713C212.519 89.5228 212.38 89.3325 212.007 89.3325C211.892 89.3325 211.818 89.3425 211.763 89.3525V90.0735V90.0785ZM211.763 91.2602H211.425V89.1272C211.599 89.1022 211.768 89.0771 212.022 89.0771C212.345 89.0771 212.549 89.1522 212.678 89.2373C212.812 89.3325 212.867 89.4777 212.867 89.678C212.867 89.9634 212.688 90.1336 212.459 90.1987V90.2137C212.643 90.2438 212.772 90.414 212.817 90.7295C212.867 91.0599 212.911 91.1901 212.946 91.2552H212.593C212.544 91.1901 212.499 90.9949 212.449 90.7094C212.399 90.4391 212.265 90.3389 211.997 90.3389H211.768V91.2552L211.763 91.2602ZM212.116 88.5313C211.281 88.5313 210.59 89.2524 210.59 90.1386C210.59 91.0249 211.281 91.7609 212.116 91.7609C212.966 91.771 213.632 91.0449 213.632 90.1436C213.632 89.2424 212.961 88.5263 212.116 88.5263V88.5313ZM212.116 88.2309C213.155 88.2309 213.985 89.0821 213.985 90.1436C213.985 91.2052 213.155 92.0614 212.111 92.0614C211.067 92.0614 210.227 91.2252 210.227 90.1436C210.227 89.0621 211.077 88.2309 212.111 88.2309H212.116Z" fill="white"/>
</g>
<defs>
<clipPath id="clip0_36_2091">
<rect width="296" height="105.19" fill="white"/>
</clipPath>
</defs>
</svg>
