<svg xmlns="http://www.w3.org/2000/svg" xmlns:xlink="http://www.w3.org/1999/xlink" version="1.1" width="256" height="256" viewBox="0 0 256 256" xml:space="preserve">

<defs>
</defs>
<g style="stroke: none; stroke-width: 0; stroke-dasharray: none; stroke-linecap: butt; stroke-linejoin: miter; stroke-miterlimit: 10; fill: none; fill-rule: nonzero; opacity: 1;" transform="translate(1.4065934065934016 1.4065934065934016) scale(2.81 2.81)" >
	<circle cx="42.899" cy="43.199" r="13.609" style="stroke: none; stroke-width: 1; stroke-dasharray: none; stroke-linecap: butt; stroke-linejoin: miter; stroke-miterlimit: 10; fill: rgb(248,204,29); fill-rule: nonzero; opacity: 1;" transform="  matrix(1 0 0 1 0 0) "/>
	<path d="M 40.978 89.999 c -1.145 0 -2.219 -0.443 -3.024 -1.249 L 27.738 78.534 c -0.391 -0.391 -0.391 -1.023 0 -1.414 s 1.023 -0.391 1.414 0 l 10.216 10.216 c 0.855 0.855 2.365 0.856 3.219 0 c 0.428 -0.428 0.663 -0.999 0.663 -1.609 c 0 -0.611 -0.236 -1.183 -0.663 -1.61 l -9.112 -9.111 c -0.391 -0.391 -0.391 -1.023 0 -1.414 s 1.023 -0.391 1.414 0 l 9.112 9.111 c 0.805 0.805 1.249 1.879 1.249 3.024 s -0.444 2.219 -1.249 3.023 C 43.197 89.556 42.123 89.999 40.978 89.999 z" style="stroke: none; stroke-width: 1; stroke-dasharray: none; stroke-linecap: butt; stroke-linejoin: miter; stroke-miterlimit: 10; fill: rgb(0,0,0); fill-rule: nonzero; opacity: 1;" transform=" matrix(1 0 0 1 0 0) " stroke-linecap="round" />
	<path d="M 13.744 83.265 c -2.794 0 -5.589 -1.063 -7.717 -3.191 c -2.062 -2.061 -3.197 -4.802 -3.197 -7.717 S 3.965 66.7 6.027 64.64 l 5.299 -5.3 c 5.807 -7.34 9.745 -16.754 11.706 -27.982 l 0 0 c 0.182 -1.042 0.92 -1.886 1.927 -2.205 c 1.004 -0.317 2.089 -0.052 2.833 0.693 l 28.467 28.466 c 0.744 0.744 1.01 1.83 0.692 2.833 c -0.318 1.007 -1.163 1.746 -2.205 1.928 c -11.244 1.962 -20.669 5.909 -28.015 11.731 l -5.27 5.27 C 19.333 82.2 16.539 83.265 13.744 83.265 z M 25.001 31.701 c -2.022 11.584 -6.108 21.316 -12.144 28.926 l -0.077 0.086 l -5.34 5.341 c -1.684 1.684 -2.611 3.922 -2.611 6.303 s 0.927 4.619 2.611 6.303 c 3.476 3.475 9.13 3.475 12.606 0 l 6.156 -6.156 l 0.084 0.113 c 7.488 -5.692 16.94 -9.564 28.115 -11.515 c 0.444 -0.077 0.597 -0.417 0.643 -0.56 c 0.044 -0.141 0.113 -0.502 -0.2 -0.816 L 26.378 31.259 c -0.314 -0.314 -0.675 -0.244 -0.816 -0.2 C 25.419 31.105 25.079 31.257 25.001 31.701 L 25.001 31.701 z" style="stroke: none; stroke-width: 1; stroke-dasharray: none; stroke-linecap: butt; stroke-linejoin: miter; stroke-miterlimit: 10; fill: rgb(0,0,0); fill-rule: nonzero; opacity: 1;" transform=" matrix(1 0 0 1 0 0) " stroke-linecap="round" />
	<path d="M 48.844 47.431 c -0.256 0 -0.512 -0.098 -0.707 -0.293 c -0.391 -0.391 -0.391 -1.023 0 -1.414 c 1.9 -1.9 1.707 -5.186 -0.432 -7.325 c -2.139 -2.139 -5.424 -2.332 -7.325 -0.432 c -0.391 0.391 -1.023 0.391 -1.414 0 s -0.391 -1.023 0 -1.414 c 1.311 -1.313 3.097 -1.978 5.037 -1.886 c 1.899 0.094 3.716 0.917 5.117 2.318 c 2.918 2.918 3.112 7.473 0.432 10.153 C 49.355 47.333 49.1 47.431 48.844 47.431 z" style="stroke: none; stroke-width: 1; stroke-dasharray: none; stroke-linecap: butt; stroke-linejoin: miter; stroke-miterlimit: 10; fill: rgb(0,0,0); fill-rule: nonzero; opacity: 1;" transform=" matrix(1 0 0 1 0 0) " stroke-linecap="round" />
	<path d="M 63.364 42.575 c -0.256 0 -0.512 -0.098 -0.707 -0.293 c -0.391 -0.391 -0.391 -1.023 0 -1.414 l 9.857 -9.857 c 0.391 -0.391 1.023 -0.391 1.414 0 s 0.391 1.023 0 1.414 l -9.857 9.857 C 63.876 42.478 63.62 42.575 63.364 42.575 z" style="stroke: none; stroke-width: 1; stroke-dasharray: none; stroke-linecap: butt; stroke-linejoin: miter; stroke-miterlimit: 10; fill: rgb(248,204,29); fill-rule: nonzero; opacity: 1;" transform=" matrix(1 0 0 1 0 0) " stroke-linecap="round" />
	<path d="M 58.452 29.716 c -0.256 0 -0.512 -0.098 -0.707 -0.293 c -0.391 -0.391 -0.391 -1.023 0 -1.414 L 75.859 9.895 c 0.391 -0.391 1.023 -0.391 1.414 0 s 0.391 1.023 0 1.414 L 59.159 29.423 C 58.964 29.619 58.708 29.716 58.452 29.716 z" style="stroke: none; stroke-width: 1; stroke-dasharray: none; stroke-linecap: butt; stroke-linejoin: miter; stroke-miterlimit: 10; fill: rgb(248,204,29); fill-rule: nonzero; opacity: 1;" transform=" matrix(1 0 0 1 0 0) " stroke-linecap="round" />
	<path d="M 46.325 24.279 c -0.256 0 -0.512 -0.098 -0.707 -0.293 c -0.391 -0.391 -0.391 -1.023 0 -1.414 l 12.031 -12.031 c 0.391 -0.391 1.023 -0.391 1.414 0 s 0.391 1.023 0 1.414 L 47.032 23.986 C 46.837 24.181 46.581 24.279 46.325 24.279 z" style="stroke: none; stroke-width: 1; stroke-dasharray: none; stroke-linecap: butt; stroke-linejoin: miter; stroke-miterlimit: 10; fill: rgb(248,204,29); fill-rule: nonzero; opacity: 1;" transform=" matrix(1 0 0 1 0 0) " stroke-linecap="round" />
	<path d="M 83.445 23.317 h -1.822 v -1.822 c 0 -0.552 -0.447 -1 -1 -1 s -1 0.448 -1 1 v 1.822 h -1.822 c -0.553 0 -1 0.448 -1 1 s 0.447 1 1 1 h 1.822 v 1.822 c 0 0.552 0.447 1 1 1 s 1 -0.448 1 -1 v -1.822 h 1.822 c 0.553 0 1 -0.448 1 -1 S 83.998 23.317 83.445 23.317 z" style="stroke: none; stroke-width: 1; stroke-dasharray: none; stroke-linecap: butt; stroke-linejoin: miter; stroke-miterlimit: 10; fill: rgb(248,204,29); fill-rule: nonzero; opacity: 1;" transform=" matrix(1 0 0 1 0 0) " stroke-linecap="round" />
	<path d="M 68.256 3.17 h -1.822 V 1.348 c 0 -0.552 -0.447 -1 -1 -1 s -1 0.448 -1 1 V 3.17 h -1.822 c -0.553 0 -1 0.448 -1 1 s 0.447 1 1 1 h 1.822 v 1.822 c 0 0.552 0.447 1 1 1 s 1 -0.448 1 -1 V 5.17 h 1.822 c 0.553 0 1 -0.448 1 -1 S 68.809 3.17 68.256 3.17 z" style="stroke: none; stroke-width: 1; stroke-dasharray: none; stroke-linecap: butt; stroke-linejoin: miter; stroke-miterlimit: 10; fill: rgb(248,204,29); fill-rule: nonzero; opacity: 1;" transform=" matrix(1 0 0 1 0 0) " stroke-linecap="round" />
	<path d="M 83.26 7.817 c -1.001 0 -2.003 -0.381 -2.765 -1.144 c -0.738 -0.738 -1.146 -1.72 -1.146 -2.765 c 0 -1.044 0.407 -2.026 1.146 -2.765 c 1.523 -1.524 4.004 -1.524 5.529 0 c 0.738 0.739 1.146 1.721 1.146 2.765 c 0 1.044 -0.407 2.026 -1.146 2.765 l 0 0 l 0 0 C 85.262 7.436 84.261 7.817 83.26 7.817 z M 83.26 2 c -0.489 0 -0.979 0.186 -1.351 0.558 c -0.36 0.361 -0.56 0.841 -0.56 1.351 c 0 0.51 0.198 0.99 0.56 1.351 c 0.744 0.744 1.957 0.744 2.701 0 l 0 0 c 0.361 -0.361 0.56 -0.84 0.56 -1.351 c 0 -0.51 -0.199 -0.99 -0.56 -1.351 C 84.238 2.186 83.749 2 83.26 2 z" style="stroke: none; stroke-width: 1; stroke-dasharray: none; stroke-linecap: butt; stroke-linejoin: miter; stroke-miterlimit: 10; fill: rgb(248,204,29); fill-rule: nonzero; opacity: 1;" transform=" matrix(1 0 0 1 0 0) " stroke-linecap="round" />
</g>
</svg>