<svg xmlns="http://www.w3.org/2000/svg" xmlns:xlink="http://www.w3.org/1999/xlink" version="1.1" width="256" height="256" viewBox="0 0 256 256" xml:space="preserve">

<defs>
</defs>
<g style="stroke: none; stroke-width: 0; stroke-dasharray: none; stroke-linecap: butt; stroke-linejoin: miter; stroke-miterlimit: 10; fill: none; fill-rule: nonzero; opacity: 1;" transform="translate(1.4065934065934016 1.4065934065934016) scale(2.81 2.81)" >
	<path d="M 87 22.681 H 33.355 c -1.657 0 -3 -1.343 -3 -3 s 1.343 -3 3 -3 H 87 c 1.657 0 3 1.343 3 3 S 88.657 22.681 87 22.681 z" style="stroke: none; stroke-width: 1; stroke-dasharray: none; stroke-linecap: butt; stroke-linejoin: miter; stroke-miterlimit: 10; fill: rgb(0,0,0); fill-rule: nonzero; opacity: 1;" transform=" matrix(1 0 0 1 0 0) " stroke-linecap="round" />
	<path d="M 74.016 39.561 h -40.66 c -1.657 0 -3 -1.343 -3 -3 s 1.343 -3 3 -3 h 40.66 c 1.657 0 3 1.343 3 3 S 75.673 39.561 74.016 39.561 z" style="stroke: none; stroke-width: 1; stroke-dasharray: none; stroke-linecap: butt; stroke-linejoin: miter; stroke-miterlimit: 10; fill: rgb(0,0,0); fill-rule: nonzero; opacity: 1;" transform=" matrix(1 0 0 1 0 0) " stroke-linecap="round" />
	<path d="M 61.032 56.439 H 33.355 c -1.657 0 -3 -1.343 -3 -3 s 1.343 -3 3 -3 h 27.677 c 1.657 0 3 1.343 3 3 S 62.689 56.439 61.032 56.439 z" style="stroke: none; stroke-width: 1; stroke-dasharray: none; stroke-linecap: butt; stroke-linejoin: miter; stroke-miterlimit: 10; fill: rgb(0,0,0); fill-rule: nonzero; opacity: 1;" transform=" matrix(1 0 0 1 0 0) " stroke-linecap="round" />
	<path d="M 48.048 73.319 H 33.355 c -1.657 0 -3 -1.343 -3 -3 s 1.343 -3 3 -3 h 14.692 c 1.657 0 3 1.343 3 3 S 49.705 73.319 48.048 73.319 z" style="stroke: none; stroke-width: 1; stroke-dasharray: none; stroke-linecap: butt; stroke-linejoin: miter; stroke-miterlimit: 10; fill: rgb(0,0,0); fill-rule: nonzero; opacity: 1;" transform=" matrix(1 0 0 1 0 0) " stroke-linecap="round" />
	<path d="M 11.629 73.319 c -1.657 0 -3 -1.343 -3 -3 V 19.681 c 0 -1.657 1.343 -3 3 -3 s 3 1.343 3 3 v 50.638 C 14.629 71.977 13.286 73.319 11.629 73.319 z" style="stroke: none; stroke-width: 1; stroke-dasharray: none; stroke-linecap: butt; stroke-linejoin: miter; stroke-miterlimit: 10; fill: rgb(0,0,0); fill-rule: nonzero; opacity: 1;" transform=" matrix(1 0 0 1 0 0) " stroke-linecap="round" />
	<path d="M 11.629 73.319 L 11.629 73.319 c -0.796 0 -1.559 -0.316 -2.122 -0.879 l -8.629 -8.63 c -1.171 -1.172 -1.171 -3.071 0 -4.242 c 1.171 -1.172 3.071 -1.172 4.243 0 l 6.508 6.508 l 6.509 -6.508 c 1.171 -1.172 3.071 -1.172 4.242 0 c 1.172 1.171 1.172 3.071 0 4.242 l -8.63 8.63 C 13.188 73.003 12.425 73.319 11.629 73.319 z" style="stroke: none; stroke-width: 1; stroke-dasharray: none; stroke-linecap: butt; stroke-linejoin: miter; stroke-miterlimit: 10; fill: rgb(0,0,0); fill-rule: nonzero; opacity: 1;" transform=" matrix(1 0 0 1 0 0) " stroke-linecap="round" />
</g>
</svg>